<svg width="120" height="52" viewBox="0 0 120 52" fill="none" xmlns="http://www.w3.org/2000/svg">
    <path d="M119.319 49.4086C117.5 51.9262 112.304 51.56 105.827 48.905C105.278 48.6761 104.717 48.4473 104.156 48.1841C101.078 46.7879 97.7589 44.9111 94.3944 42.6337C93.6277 42.1187 92.8724 41.5809 92.1056 41.0201C91.3618 40.4708 90.6522 39.9329 89.9427 39.3722C89.5879 39.0975 89.2561 38.8229 88.9127 38.5482C87.4937 37.3809 86.1433 36.1907 84.8959 35.0235C77.3658 27.871 73.4519 20.7413 75.8094 17.4912C77.1026 15.6831 80.1123 15.3512 84.0605 16.2782C84.6098 16.3812 86.2577 16.8389 86.8528 17.0106C86.8528 17.0106 86.5553 17.3425 85.903 18.3953C85.3193 19.3337 84.9188 20.1119 84.9188 20.1119C84.6441 20.1005 84.3924 20.1005 84.1406 20.1119C83.8545 20.1348 83.5799 20.1577 83.3166 20.192C82.0578 20.3751 81.5199 20.7528 80.9477 21.5882C79.2311 23.98 81.2338 28.6606 85.4567 33.5128C86.4409 34.6229 87.5166 35.7559 88.7182 36.8774C89.0615 37.1749 89.3934 37.4839 89.7482 37.7929C90.9956 38.903 92.3459 39.9902 93.7879 41.0544C94.0969 41.2948 94.4173 41.5122 94.7377 41.7296C98.0794 44.0871 101.421 45.9067 104.454 47.1198C104.992 47.3486 105.541 47.5432 106.079 47.7263C110.37 49.1682 114.112 48.5503 115.566 46.5247C117.717 43.5492 114.662 37.9302 108.036 31.842C107.647 31.4873 107.223 31.1096 106.8 30.7434C106.262 30.2628 105.678 29.7821 105.083 29.3015C104.488 28.8437 103.893 28.3745 103.263 27.9167C101.799 26.8524 100.322 25.8683 98.869 24.9985C96.9464 23.8541 95.0696 22.8928 93.2729 22.1261C93.2729 22.1261 94.1426 21.0046 94.4287 20.4095C96.2483 21.3593 97.5758 22.1604 99.4641 23.3849C100.643 24.1631 101.844 24.9871 103.035 25.8568C103.618 26.2917 104.213 26.7266 104.763 27.1614C105.404 27.6535 106.01 28.1456 106.628 28.6491C107.292 29.2099 107.944 29.7592 108.585 30.3314C117.168 37.9875 121.837 45.9067 119.319 49.4086Z" fill="#FFFFFF"/>
    <path d="M91.5485 0.428591C87.9093 -1.51689 81.2947 3.31248 75.0463 11.8383C74.1079 13.12 73.1809 14.4818 72.2654 15.9123C71.9564 16.4159 71.636 16.9194 71.3156 17.4344C70.5946 18.636 69.8965 19.8834 69.2099 21.1651C68.9467 21.6801 68.6606 22.1836 68.4088 22.6986C66.7037 26.0517 65.3075 29.3476 64.2432 32.4375C64.1745 32.6663 64.0944 32.8952 64.0258 33.0898C63.6939 34.0511 63.4307 34.978 63.1789 35.8821C63.1446 36.0538 63.0874 36.2025 63.0416 36.3742C62.2863 39.2581 61.8629 41.8788 61.7942 44.1103C61.7141 46.6395 62.1146 48.6651 62.9958 49.9926C63.3735 50.5419 63.8198 50.9653 64.3576 51.2514C68.3401 53.3914 75.2866 48.1959 82.0271 38.1251L80.2762 37.1524C76.8087 41.4782 73.2382 44.3507 70.4115 45.0259C69.3014 45.2891 68.3173 45.2204 67.4818 44.7741C67.047 44.5452 66.6808 44.2133 66.3603 43.8014C65.1702 42.2335 64.8383 39.4526 65.3075 35.9393C65.4219 35.1154 65.5821 34.2685 65.7767 33.3873C66.5091 30.1715 67.7679 26.5209 69.5761 22.7673C69.9766 21.9662 70.3772 21.1537 70.812 20.3297C71.4415 19.1624 72.0823 18.0524 72.7461 16.9881C73.0322 16.496 73.3412 16.0153 73.6616 15.5576C74.5199 14.2415 75.4125 13.0399 76.2937 11.9069C81.1688 5.72716 86.3072 2.39696 89.3055 4.01056C91.4799 5.17785 92.1207 8.67972 91.3998 13.3489C91.3425 13.7265 91.2739 14.1042 91.2052 14.4818C90.4041 18.6017 88.9851 22.8588 86.3301 27.8026C86.3186 27.837 86.2957 27.8713 86.2843 27.9056L87.5202 28.8784C90.0265 23.9231 91.9948 18.8763 93.0591 14.6306C93.1621 14.2186 93.2651 13.8066 93.3452 13.3946C94.7757 6.84868 94.2951 1.89342 91.5485 0.428591Z" fill="#FFFFFF"/>
    <path d="M3.11392 35.6644L3.01092 36.1221C2.55316 38.3079 3.27413 39.3951 5.2425 39.3951C7.0392 39.3951 8.22937 38.1248 8.50403 36.7973C8.90457 34.9319 8.12638 34.0965 6.63866 33.6273L4.81907 32.9521C2.43872 31.9565 1.59187 30.6061 2.14118 28.0541C2.82782 24.804 5.41416 22.9958 8.76724 22.9958C13.3334 22.9958 13.2075 25.8569 12.8184 27.6993L12.7383 28.0999H9.87731L9.95741 27.7222C10.3122 26.1086 9.77431 25.1473 8.01194 25.1473C6.77599 25.1473 5.48282 25.834 5.07084 27.7222C4.73896 29.2557 5.35694 30.0225 7.10786 30.7434L8.87024 31.453C11.2048 32.357 12.0173 33.7303 11.4909 36.1793C10.6898 39.9787 8.05771 41.5466 4.45286 41.5466C0.0240445 41.5466 -0.342163 38.6169 0.18426 36.0992L0.275812 35.6872H3.11392V35.6644Z" fill="#FFFFFF"/>
    <path d="M21.8895 23.339H24.7505L23.0911 31.1095H23.1369L30.1864 23.339H33.322L26.5701 30.8577L30.072 41.1916H26.8562L24.2355 33.1694L22.1756 35.4124L20.9511 41.1916H18.1016L21.8895 23.339Z" fill="#FFFFFF"/>
    <path d="M40.9943 23.339H43.8553L40.0673 41.1916H37.2178L40.9943 23.339Z" fill="#FFFFFF"/>
</svg>
